HIERARCHY
ROOT hip
{
	OFFSET 0.000000 103.560692 0.219151
	CHANNELS 6 Xposition Yposition Zposition Zrotation Xrotation Yrotation
	JOINT pelvis
	{
		OFFSET 0.000000 1.955040 1.591925
		CHANNELS 3 Zrotation Xrotation Yrotation
		JOINT lThigh
		{
			OFFSET 8.341582 -7.629402 -0.646910
			CHANNELS 3 Zrotation Xrotation Yrotation
			JOINT lShin
			{
				OFFSET 2.185763 -45.093132 -0.705710
				CHANNELS 3 Zrotation Xrotation Yrotation
				JOINT lFoot
				{
					OFFSET 0.730976 -46.379768 -2.264282
					CHANNELS 3 Zrotation Xrotation Yrotation
					JOINT lToe
					{
						OFFSET 2.797621 -4.200020 10.742415
						CHANNELS 3 Zrotation Xrotation Yrotation
						JOINT lBigToe
						{
							OFFSET -2.433708 -0.269072 1.841711
							CHANNELS 3 Zrotation Xrotation Yrotation
							End Site
							{
								OFFSET -10.527346 -33.657166 -1.340707
							}
						}
					}
				}
			}
		}
		JOINT rThigh
		{
			OFFSET -8.341582 -7.629402 -0.646910
			CHANNELS 3 Zrotation Xrotation Yrotation
			JOINT rShin
			{
				OFFSET -2.185763 -45.093132 -0.705710
				CHANNELS 3 Zrotation Xrotation Yrotation
				JOINT rFoot
				{
					OFFSET -0.730976 -46.379768 -2.264282
					CHANNELS 3 Zrotation Xrotation Yrotation
					JOINT rToe
					{
						OFFSET -2.797621 -4.200019 10.742415
						CHANNELS 3 Zrotation Xrotation Yrotation
						JOINT rBigToe
						{
							OFFSET 2.433708 -0.269072 1.841711
							CHANNELS 3 Zrotation Xrotation Yrotation
							End Site
							{
								OFFSET 0.000000 24.298409 -0.425647
							}
						}
					}
				}
			}
		}
	}
	JOINT abdomen
	{
		OFFSET 0.000000 1.841293 -3.551421
		CHANNELS 3 Zrotation Xrotation Yrotation
		JOINT abdomen2
		{
			OFFSET 0.000000 5.439911 3.419600
			CHANNELS 3 Zrotation Xrotation Yrotation
			JOINT chest
			{
				OFFSET 0.000000 14.715073 -2.918270
				CHANNELS 3 Zrotation Xrotation Yrotation
				JOINT neck
				{
					OFFSET 0.000000 26.294655 -1.248052
					CHANNELS 3 Zrotation Xrotation Yrotation
					JOINT head
					{
						OFFSET 0.000000 8.807068 1.063695
						CHANNELS 3 Zrotation Xrotation Yrotation
						JOINT rEye
						{
							OFFSET -3.030866 6.632080 7.702687
							CHANNELS 3 Zrotation Xrotation Yrotation
							End Site
							{
								OFFSET 2.969555 -11.022598 8.626689
							}
						}
						JOINT lEye
						{
							OFFSET 3.030866 6.632080 7.702687
							CHANNELS 3 Zrotation Xrotation Yrotation
							End Site
							{
								OFFSET 0.000000 -15.881760 10.104412
							}
						}
						JOINT upperJaw
						{
							OFFSET 0.000000 1.922699 2.891887
							CHANNELS 3 Zrotation Xrotation Yrotation
							End Site
							{
								OFFSET 0.000000 -19.386169 10.230839
							}
						}
						JOINT lowerJaw
						{
							OFFSET 0.000000 1.857620 2.686640
							CHANNELS 3 Zrotation Xrotation Yrotation
							JOINT tongueBase
							{
								OFFSET 0.000000 -3.019135 2.746916
								CHANNELS 3 Zrotation Xrotation Yrotation
								JOINT tongue01
								{
									OFFSET 0.000000 0.664124 0.223355
									CHANNELS 3 Zrotation Xrotation Yrotation
									JOINT tongue02
									{
										OFFSET 0.000000 0.339737 0.715627
										CHANNELS 3 Zrotation Xrotation Yrotation
										JOINT tongue03
										{
											OFFSET 0.000000 0.123444 0.730634
											CHANNELS 3 Zrotation Xrotation Yrotation
											JOINT tongue04
											{
												OFFSET 0.000000 0.017212 0.737415
												CHANNELS 3 Zrotation Xrotation Yrotation
												JOINT tongue05
												{
													OFFSET 0.000000 -0.021011 0.632440
													CHANNELS 3 Zrotation Xrotation Yrotation
													JOINT tongueTip
													{
														OFFSET 0.000000 -0.014404 0.601796
														CHANNELS 3 Zrotation Xrotation Yrotation
														End Site
														{
															OFFSET -14.139406 -2.625778 0.472826
														}
													}
												}
											}
										}
									}
								}
							}
						}
					}
				}
				JOINT rCollar
				{
					OFFSET -2.109295 21.452370 3.768136
					CHANNELS 3 Zrotation Xrotation Yrotation
					JOINT rShldr
					{
						OFFSET -11.491621 -2.568573 -4.940255
						CHANNELS 3 Zrotation Xrotation Yrotation
						JOINT rForeArm
						{
							OFFSET -28.789030 -0.213806 2.098380
							CHANNELS 3 Zrotation Xrotation Yrotation
							JOINT rHand
							{
								OFFSET -22.260895 -0.869583 10.391586
								CHANNELS 3 Zrotation Xrotation Yrotation
								JOINT rThumb1
								{
									OFFSET -0.628075 0.137405 2.362409
									CHANNELS 3 Zrotation Xrotation Yrotation
									JOINT rThumb2
									{
										OFFSET 0.085205 -0.600235 3.826079
										CHANNELS 3 Zrotation Xrotation Yrotation
										JOINT rThumb3
										{
											OFFSET -1.255478 -0.879211 2.439162
											CHANNELS 3 Zrotation Xrotation Yrotation
											End Site
											{
												OFFSET -2.963715 0.538574 4.059553
											}
										}
									}
								}
								JOINT rCarpal1
								{
									OFFSET -0.855530 1.026047 1.621985
									CHANNELS 3 Zrotation Xrotation Yrotation
									JOINT rIndex1
									{
										OFFSET -3.951324 0.390884 3.873290
										CHANNELS 3 Zrotation Xrotation Yrotation
										JOINT rIndex2
										{
											OFFSET -3.071884 -1.259598 2.506104
											CHANNELS 3 Zrotation Xrotation Yrotation
											JOINT rIndex3
											{
												OFFSET -1.394112 -1.446640 1.203302
												CHANNELS 3 Zrotation Xrotation Yrotation
												End Site
												{
													OFFSET -3.392448 -1.258026 0.533405
												}
											}
										}
									}
									JOINT rMid1
									{
										OFFSET -5.422974 0.107910 2.002650
										CHANNELS 3 Zrotation Xrotation Yrotation
										JOINT rMid2
										{
											OFFSET -3.599533 -1.323776 2.090647
											CHANNELS 3 Zrotation Xrotation Yrotation
											JOINT rMid3
											{
												OFFSET -1.360191 -1.598495 1.068055
												CHANNELS 3 Zrotation Xrotation Yrotation
												End Site
												{
													OFFSET -4.087769 -0.460876 0.069540
												}
											}
										}
									}
								}
								JOINT rCarpal2
								{
									OFFSET -1.942749 0.556229 -0.337217
									CHANNELS 3 Zrotation Xrotation Yrotation
									JOINT rRing1
									{
										OFFSET -4.762787 -0.121170 2.349089
										CHANNELS 3 Zrotation Xrotation Yrotation
										JOINT rRing2
										{
											OFFSET -3.380348 -1.337097 1.356700
											CHANNELS 3 Zrotation Xrotation Yrotation
											JOINT rRing3
											{
												OFFSET -1.430290 -1.499649 0.914224
												CHANNELS 3 Zrotation Xrotation Yrotation
												End Site
												{
													OFFSET -1.783272 -2.215851 -0.391895
												}
											}
										}
									}
									JOINT rPinky1
									{
										OFFSET -5.232559 -1.313721 0.336493
										CHANNELS 3 Zrotation Xrotation Yrotation
										JOINT rPinky2
										{
											OFFSET -2.217606 -1.389603 0.800693
											CHANNELS 3 Zrotation Xrotation Yrotation
											JOINT rPinky3
											{
												OFFSET -0.886887 -1.462280 0.774199
												CHANNELS 3 Zrotation Xrotation Yrotation
												End Site
												{
													OFFSET 14.139406 -2.625778 0.472826
												}
											}
										}
									}
								}
							}
						}
					}
				}
				JOINT lCollar
				{
					OFFSET 2.109295 21.452370 3.768136
					CHANNELS 3 Zrotation Xrotation Yrotation
					JOINT lShldr
					{
						OFFSET 11.491621 -2.568573 -4.940255
						CHANNELS 3 Zrotation Xrotation Yrotation
						JOINT lForeArm
						{
							OFFSET 28.789030 -0.213806 2.098380
							CHANNELS 3 Zrotation Xrotation Yrotation
							JOINT lHand
							{
								OFFSET 22.260895 -0.869583 10.391586
								CHANNELS 3 Zrotation Xrotation Yrotation
								JOINT lThumb1
								{
									OFFSET 0.628075 0.137405 2.362409
									CHANNELS 3 Zrotation Xrotation Yrotation
									JOINT lThumb2
									{
										OFFSET -0.085205 -0.600235 3.826079
										CHANNELS 3 Zrotation Xrotation Yrotation
										JOINT lThumb3
										{
											OFFSET 1.255478 -0.879211 2.439162
											CHANNELS 3 Zrotation Xrotation Yrotation
											End Site
											{
												OFFSET 2.963715 0.538574 4.059553
											}
										}
									}
								}
								JOINT lCarpal1
								{
									OFFSET 0.855530 1.026047 1.621985
									CHANNELS 3 Zrotation Xrotation Yrotation
									JOINT lIndex1
									{
										OFFSET 3.951324 0.390884 3.873290
										CHANNELS 3 Zrotation Xrotation Yrotation
										JOINT lIndex2
										{
											OFFSET 3.071884 -1.259598 2.506104
											CHANNELS 3 Zrotation Xrotation Yrotation
											JOINT lIndex3
											{
												OFFSET 1.394112 -1.446640 1.203302
												CHANNELS 3 Zrotation Xrotation Yrotation
												End Site
												{
													OFFSET 3.392448 -1.258026 0.533405
												}
											}
										}
									}
									JOINT lMid1
									{
										OFFSET 5.422974 0.107910 2.002650
										CHANNELS 3 Zrotation Xrotation Yrotation
										JOINT lMid2
										{
											OFFSET 3.599533 -1.323776 2.090647
											CHANNELS 3 Zrotation Xrotation Yrotation
											JOINT lMid3
											{
												OFFSET 1.360191 -1.598495 1.068055
												CHANNELS 3 Zrotation Xrotation Yrotation
												End Site
												{
													OFFSET 4.087769 -0.460876 0.069540
												}
											}
										}
									}
								}
								JOINT lCarpal2
								{
									OFFSET 1.942749 0.556229 -0.337217
									CHANNELS 3 Zrotation Xrotation Yrotation
									JOINT lRing1
									{
										OFFSET 4.762787 -0.121170 2.349089
										CHANNELS 3 Zrotation Xrotation Yrotation
										JOINT lRing2
										{
											OFFSET 3.380348 -1.337097 1.356700
											CHANNELS 3 Zrotation Xrotation Yrotation
											JOINT lRing3
											{
												OFFSET 1.430290 -1.499649 0.914224
												CHANNELS 3 Zrotation Xrotation Yrotation
												End Site
												{
													OFFSET 1.783272 -2.215851 -0.391895
												}
											}
										}
									}
									JOINT lPinky1
									{
										OFFSET 5.232559 -1.313721 0.336493
										CHANNELS 3 Zrotation Xrotation Yrotation
										JOINT lPinky2
										{
											OFFSET 2.217606 -1.389603 0.800693
											CHANNELS 3 Zrotation Xrotation Yrotation
											JOINT lPinky3
											{
												OFFSET 0.886887 -1.462280 0.774199
												CHANNELS 3 Zrotation Xrotation Yrotation
												End Site
												{
													OFFSET -10.295957 -17.050110 17.461308
												}
											}
										}
									}
								}
							}
						}
					}
				}
				JOINT rPectoral
				{
					OFFSET -6.358840 6.360771 6.369920
					CHANNELS 3 Zrotation Xrotation Yrotation
					End Site
					{
						OFFSET 10.295957 -17.050110 17.461308
					}
				}
				JOINT lPectoral
				{
					OFFSET 6.358840 6.360771 6.369920
					CHANNELS 3 Zrotation Xrotation Yrotation
					End Site
					{
						OFFSET 10.295957 -17.050110 17.461308
					}
				}
			}
		}
	}
}
MOTION
Frames:	4
Frame Time:	0.0333333
0.000000 0.988563 0.000000 0.746105 3.447539 1.845423 0.000000 0.000000 0.000000 2.963369 -4.752166 -0.378481 -1.304065 2.275238 -7.198817 2.570049 -16.530369 -8.553647 4.393646 -8.253610 1.782797 0.000000 0.000000 0.000000 -2.343465 -7.545961 4.637968 2.626099 7.682510 11.455010 -6.190181 -19.691628 -8.712091 -4.722867 -7.726259 -1.703113 0.000000 0.000000 0.000000 -1.739818 -2.254973 -3.448787 0.000000 0.000000 0.000000 1.286296 6.260974 -2.639704 4.538545 -17.368904 1.669275 -3.770800 12.035876 4.176224 0.000000 0.000000 0.000000 0.000000 0.000000 0.000000 0.000000 0.000000 0.000000 0.000000 0.000000 0.000000 0.000000 0.000000 0.000000 0.000000 0.000000 0.000000 0.000000 0.000000 0.000000 0.000000 0.000000 0.000000 0.000000 0.000000 0.000000 0.000000 0.000000 0.000000 0.000000 0.000000 0.000000 17.969503 -0.082396 -3.837565 57.723297 24.763693 2.182965 0.451563 -12.991405 -8.537599 2.361743 1.841292 3.171060 -20.278101 15.997745 -11.245070 -5.401445 -14.238566 9.888338 -16.386185 20.674324 16.306753 0.000000 0.000000 0.000000 -10.343157 -8.557319 -17.038942 -2.650367 -0.131542 -1.344829 -5.875090 -3.469411 -1.119084 -8.633018 -3.335162 -7.177779 -0.610023 3.071131 -3.816422 0.480527 4.592870 -2.190487 0.000000 0.000000 0.000000 -7.611748 -8.343170 -0.037786 3.868930 4.727137 -6.989123 1.277423 8.352849 -3.951752 -21.227736 -24.557865 -14.831578 1.013203 5.939926 -6.999176 24.164572 21.174973 -1.897021 -12.931789 0.067737 3.190817 -65.704636 20.729015 -2.953140 3.113644 -18.721338 19.256958 -10.737016 6.544425 -4.461303 15.319375 21.766415 8.847219 9.904468 -11.639134 7.274026 18.886467 24.467115 -9.615162 0.000000 0.000000 0.000000 12.080853 -8.723123 19.608042 3.025234 -1.922557 -0.227858 7.689088 -5.956465 1.330195 9.667841 -3.684860 7.571191 1.674749 2.684874 3.929818 -3.515051 6.260480 1.417954 0.000000 0.000000 0.000000 14.823339 -9.916796 2.952401 -14.906257 10.476986 6.850892 -11.607069 10.931417 0.450192 21.836168 -24.297314 15.491173 -1.839828 7.771734 6.102023 -27.431831 15.386127 -3.017462 0.150756 -0.007537 -0.442678 -0.116024 -0.005697 0.340679 
-0.012659 0.975936 -0.047483 0.843547 3.498879 1.151225 0.000000 0.000000 0.000000 2.795784 -4.641422 0.041107 -1.004010 2.088355 -6.960589 2.523099 -16.530165 -8.597429 4.393646 -8.253610 1.782797 0.000000 0.000000 0.000000 -2.410143 -7.782792 4.916558 2.662870 7.842966 11.848160 -6.127514 -19.755659 -8.575737 -4.703354 -7.686333 -1.713610 0.000000 0.000000 0.000000 -1.324682 -2.369287 -3.225701 0.000000 0.000000 0.000000 0.875425 6.258914 -2.377644 4.366113 -17.549747 1.755409 -3.680082 12.362111 4.213420 0.000000 0.000000 0.000000 0.000000 0.000000 0.000000 0.000000 0.000000 0.000000 0.000000 0.000000 0.000000 0.000000 0.000000 0.000000 0.000000 0.000000 0.000000 0.000000 0.000000 0.000000 0.000000 0.000000 0.000000 0.000000 0.000000 0.000000 0.000000 0.000000 0.000000 0.000000 0.000000 0.000000 17.955824 -0.058945 -3.739472 57.436005 25.091150 2.481273 0.702700 -13.326141 -8.667432 2.361743 1.841292 3.171060 -20.278101 15.997745 -11.245070 -5.401445 -14.238566 9.888338 -16.386185 20.674324 16.306753 0.000000 0.000000 0.000000 -10.343157 -8.557319 -17.038942 -2.650367 -0.131542 -1.344829 -5.875090 -3.469411 -1.119084 -8.633018 -3.335162 -7.177779 -0.610023 3.071131 -3.816422 0.480527 4.592870 -2.190487 0.000000 0.000000 0.000000 -7.548863 -8.319057 -0.026428 3.987641 4.776132 -6.989318 1.277423 8.352849 -3.951752 -21.227736 -24.557865 -14.831578 1.588394 6.151482 -6.960059 24.306486 21.256069 -1.892710 -12.931789 0.067737 3.190817 -65.791077 20.131660 -3.076584 3.014246 -17.849148 19.260338 -11.078458 6.768449 -4.797554 15.319375 21.766415 8.847219 9.904468 -11.639134 7.274026 18.886467 24.467115 -9.615162 0.000000 0.000000 0.000000 12.080853 -8.723123 19.608042 3.025234 -1.922557 -0.227858 7.689088 -5.956465 1.330195 9.667841 -3.684860 7.571191 1.674749 2.684874 3.929818 -3.515051 6.260480 1.417954 0.000000 0.000000 0.000000 14.723923 -9.882230 2.931489 -14.906257 10.476986 6.850892 -11.607069 10.931417 0.450192 21.836168 -24.297314 15.491173 -2.401860 7.975134 6.076845 -27.589182 15.476068 -3.019164 0.147516 -0.007363 -0.433162 -0.116024 -0.005697 0.340679 
-0.093173 0.967310 -0.057031 0.803909 3.513227 1.231362 0.000000 0.000000 0.000000 2.906762 -4.625454 -0.011046 -1.006048 2.050225 -6.876368 2.351313 -16.536264 -8.618541 4.393646 -8.253610 1.782797 0.000000 0.000000 0.000000 -2.317400 -7.715010 5.068175 2.686959 7.662576 11.746482 -6.265963 -19.816809 -8.753370 -4.995996 -7.209716 -1.666597 0.000000 0.000000 0.000000 -1.109885 -2.680303 -3.291062 0.000000 0.000000 0.000000 0.694803 6.471111 -2.384399 4.464350 -17.241096 1.755838 -3.816427 12.009996 4.287351 0.000000 0.000000 0.000000 0.000000 0.000000 0.000000 0.000000 0.000000 0.000000 0.000000 0.000000 0.000000 0.000000 0.000000 0.000000 0.000000 0.000000 0.000000 0.000000 0.000000 0.000000 0.000000 0.000000 0.000000 0.000000 0.000000 0.000000 0.000000 0.000000 0.000000 0.000000 0.000000 0.000000 17.962704 -0.050524 -3.704307 57.220036 25.157549 2.617891 0.874895 -13.417212 -8.579751 2.367322 1.854642 3.169021 -20.278101 15.997745 -11.245070 -5.401445 -14.238566 9.888338 -16.386185 20.674324 16.306753 0.000000 0.000000 0.000000 -10.343157 -8.557319 -17.038942 -2.650367 -0.131542 -1.344829 -5.955959 -3.548436 -1.129497 -8.633018 -3.335162 -7.177779 -0.610023 3.071131 -3.816422 0.480527 4.592870 -2.190487 0.000000 0.000000 0.000000 -7.483387 -8.292254 -0.014304 4.139778 4.838895 -6.989770 1.277423 8.352849 -3.951752 -21.227736 -24.557865 -14.831578 2.261947 6.399592 -6.917199 24.479637 21.351316 -1.886043 -12.858538 0.073015 3.159438 -65.794373 20.371929 -3.167914 3.015757 -18.073265 19.380281 -10.591957 6.445763 -4.459237 15.319375 21.766415 8.847219 9.904468 -11.639134 7.274026 18.886467 24.467115 -9.615162 0.000000 0.000000 0.000000 12.070986 -8.729939 19.580976 3.025234 -1.922557 -0.227858 7.689088 -5.956465 1.330195 9.667841 -3.684860 7.571191 1.674749 2.684874 3.929818 -3.515051 6.260480 1.417954 0.000000 0.000000 0.000000 14.605029 -9.839525 2.907552 -14.906257 10.476986 6.850892 -11.607069 10.931417 0.450192 21.836168 -24.297314 15.491173 -3.055013 8.211766 6.050222 -27.777426 15.583763 -3.021360 0.146392 -0.007302 -0.429861 -0.114842 -0.005636 0.337208 
-0.240213 0.958624 -0.062061 1.042271 3.664284 0.904263 0.000000 0.000000 0.000000 2.681689 -4.602914 0.335869 -0.912548 1.788920 -6.900279 2.113826 -16.421368 -8.634735 4.393646 -8.253610 1.782797 0.000000 0.000000 0.000000 -2.536617 -8.047323 5.361097 2.779720 7.939531 11.700826 -6.363477 -20.075535 -8.793911 -4.993631 -7.007284 -1.686320 0.000000 0.000000 0.000000 -1.153574 -3.139911 -3.066903 0.000000 0.000000 0.000000 0.775798 6.912163 -2.227520 4.189117 -17.839844 1.784782 -3.747498 12.316503 4.213447 0.000000 0.000000 0.000000 0.000000 0.000000 0.000000 0.000000 0.000000 0.000000 0.000000 0.000000 0.000000 0.000000 0.000000 0.000000 0.000000 0.000000 0.000000 0.000000 0.000000 0.000000 0.000000 0.000000 0.000000 0.000000 0.000000 0.000000 0.000000 0.000000 0.000000 0.000000 0.000000 0.000000 17.804855 -0.040834 -3.683218 57.176540 25.053667 2.677392 0.705132 -13.597566 -8.301808 2.109948 1.730265 2.935014 -20.278101 15.997745 -11.245070 -5.401445 -14.238566 9.888338 -16.386185 20.674324 16.306753 0.000000 0.000000 0.000000 -10.343157 -8.557319 -17.038942 -2.650367 -0.131542 -1.344829 -6.070986 -3.660776 -1.144611 -8.633018 -3.335162 -7.177779 -0.610023 3.071131 -3.816422 0.480527 4.592870 -2.190487 0.000000 0.000000 0.000000 -7.415291 -8.262861 -0.001438 4.324796 4.911789 -6.987037 1.277423 8.352849 -3.951752 -21.227736 -24.557865 -14.831578 3.028578 6.682278 -6.871768 24.681681 21.462387 -1.878417 -12.886406 0.079532 3.121673 -65.987701 20.021881 -3.326806 3.188255 -17.558350 19.343809 -10.969579 6.653430 -4.634970 15.319375 21.766415 8.847219 9.904468 -11.639134 7.274026 18.886467 24.467115 -9.615162 0.000000 0.000000 0.000000 12.058434 -8.739499 19.547823 3.025234 -1.922557 -0.227858 7.689088 -5.956465 1.330195 9.667841 -3.684860 7.571191 1.674749 2.684874 3.929818 -3.515051 6.260480 1.417954 0.000000 0.000000 0.000000 14.467404 -9.789400 2.880584 -14.906257 10.476986 6.850892 -11.607069 10.931417 0.450192 21.836168 -24.297314 15.491173 -3.794239 8.479868 6.023334 -27.995420 15.708431 -3.022816 0.145194 -0.007238 -0.426343 -0.113679 -0.005575 0.333792 
